<mxfile host="www.draw.io" modified="2019-11-04T02:16:32.131Z" agent="Mozilla/5.0 (Macintosh; Intel Mac OS X 10_14_6) AppleWebKit/537.36 (KHTML, like Gecko) Chrome/78.0.3904.70 Safari/537.36" etag="5rhLmYax1vA2NASFsWbz" version="12.1.9" type="github" pages="1">
  <diagram id="rTVFwnJ2DSD0SSPIGdtP" name="第 1 页">
    <mxGraphModel dx="772" dy="532" grid="1" gridSize="10" guides="1" tooltips="1" connect="1" arrows="1" fold="1" page="1" pageScale="1" pageWidth="827" pageHeight="1169" math="0" shadow="0">
      <root>
        <mxCell id="0"/>
        <mxCell id="1" parent="0"/>
        <mxCell id="T5vKRFAIJWa_MrC4thSI-39" value="&lt;p&gt;&lt;font&gt;Joyven&lt;/font&gt;&lt;/p&gt;" style="text;html=1;strokeColor=none;fillColor=none;align=center;verticalAlign=middle;whiteSpace=wrap;rounded=0;labelBackgroundColor=none;fontColor=#E6E6E6;fontFamily=Verdana;rotation=15;fontSize=25;" vertex="1" parent="1">
          <mxGeometry x="283.5" y="240" width="103" height="49" as="geometry"/>
        </mxCell>
        <mxCell id="T5vKRFAIJWa_MrC4thSI-40" value="&lt;font color=&quot;#e6e6e6&quot; style=&quot;font-size: 25px&quot;&gt;Joyven&lt;/font&gt;" style="text;html=1;strokeColor=none;fillColor=none;align=center;verticalAlign=middle;whiteSpace=wrap;rounded=0;labelBackgroundColor=none;fontColor=#000000;fontFamily=Verdana;rotation=15;fontSize=25;" vertex="1" parent="1">
          <mxGeometry x="575" y="240" width="103" height="49" as="geometry"/>
        </mxCell>
        <mxCell id="T5vKRFAIJWa_MrC4thSI-41" value="&lt;font color=&quot;#e6e6e6&quot; style=&quot;font-size: 25px&quot;&gt;Joyven&lt;/font&gt;" style="text;html=1;strokeColor=none;fillColor=none;align=center;verticalAlign=middle;whiteSpace=wrap;rounded=0;labelBackgroundColor=none;fontColor=#000000;fontFamily=Verdana;rotation=15;fontSize=25;" vertex="1" parent="1">
          <mxGeometry x="283.5" y="365.5" width="103" height="49" as="geometry"/>
        </mxCell>
        <mxCell id="T5vKRFAIJWa_MrC4thSI-42" value="&lt;font color=&quot;#e6e6e6&quot; style=&quot;font-size: 25px&quot;&gt;Joyven&lt;/font&gt;" style="text;html=1;strokeColor=none;fillColor=none;align=center;verticalAlign=middle;whiteSpace=wrap;rounded=0;labelBackgroundColor=none;fontColor=#000000;fontFamily=Verdana;rotation=15;fontSize=25;" vertex="1" parent="1">
          <mxGeometry x="575" y="365.5" width="103" height="49" as="geometry"/>
        </mxCell>
        <mxCell id="T5vKRFAIJWa_MrC4thSI-43" value="&lt;font color=&quot;#e6e6e6&quot; style=&quot;font-size: 25px&quot;&gt;Joyven&lt;/font&gt;" style="text;html=1;strokeColor=none;fillColor=none;align=center;verticalAlign=middle;whiteSpace=wrap;rounded=0;labelBackgroundColor=none;fontColor=#000000;fontFamily=Verdana;rotation=15;fontSize=25;" vertex="1" parent="1">
          <mxGeometry x="283.5" y="601" width="103" height="49" as="geometry"/>
        </mxCell>
        <mxCell id="T5vKRFAIJWa_MrC4thSI-44" value="&lt;font color=&quot;#e6e6e6&quot; style=&quot;font-size: 25px&quot;&gt;Joyven&lt;/font&gt;" style="text;html=1;strokeColor=none;fillColor=none;align=center;verticalAlign=middle;whiteSpace=wrap;rounded=0;labelBackgroundColor=none;fontColor=#000000;fontFamily=Verdana;rotation=15;fontSize=25;" vertex="1" parent="1">
          <mxGeometry x="575" y="601" width="103" height="49" as="geometry"/>
        </mxCell>
        <mxCell id="T5vKRFAIJWa_MrC4thSI-18" value="" style="rounded=1;whiteSpace=wrap;html=1;fillColor=#eeeeee;strokeColor=#36393d;" vertex="1" parent="1">
          <mxGeometry x="193" y="390" width="485" height="240" as="geometry"/>
        </mxCell>
        <mxCell id="T5vKRFAIJWa_MrC4thSI-34" value="" style="rounded=1;whiteSpace=wrap;html=1;labelBackgroundColor=#FFFFFF;fontColor=#ffffff;fillColor=#1ba1e2;strokeColor=#006EAF;" vertex="1" parent="1">
          <mxGeometry x="316" y="400" width="354" height="67" as="geometry"/>
        </mxCell>
        <mxCell id="T5vKRFAIJWa_MrC4thSI-29" value="" style="rounded=1;whiteSpace=wrap;html=1;fillColor=#bac8d3;strokeColor=#23445d;" vertex="1" parent="1">
          <mxGeometry x="310" y="470" width="250" height="149" as="geometry"/>
        </mxCell>
        <mxCell id="T5vKRFAIJWa_MrC4thSI-20" value="" style="rounded=1;whiteSpace=wrap;html=1;fillColor=#b0e3e6;strokeColor=#0e8088;" vertex="1" parent="1">
          <mxGeometry x="177" y="380" width="130" height="150" as="geometry"/>
        </mxCell>
        <mxCell id="T5vKRFAIJWa_MrC4thSI-15" style="edgeStyle=orthogonalEdgeStyle;rounded=0;orthogonalLoop=1;jettySize=auto;html=1;entryX=0.5;entryY=0;entryDx=0;entryDy=0;startArrow=none;startFill=0;" edge="1" parent="1" source="T5vKRFAIJWa_MrC4thSI-5" target="T5vKRFAIJWa_MrC4thSI-8">
          <mxGeometry relative="1" as="geometry">
            <Array as="points">
              <mxPoint x="435" y="530"/>
              <mxPoint x="370" y="530"/>
            </Array>
          </mxGeometry>
        </mxCell>
        <mxCell id="T5vKRFAIJWa_MrC4thSI-16" style="edgeStyle=orthogonalEdgeStyle;rounded=0;orthogonalLoop=1;jettySize=auto;html=1;startArrow=none;startFill=0;" edge="1" parent="1" source="T5vKRFAIJWa_MrC4thSI-5" target="T5vKRFAIJWa_MrC4thSI-11">
          <mxGeometry relative="1" as="geometry">
            <Array as="points">
              <mxPoint x="435" y="530"/>
              <mxPoint x="490" y="530"/>
            </Array>
          </mxGeometry>
        </mxCell>
        <mxCell id="T5vKRFAIJWa_MrC4thSI-19" value="&lt;span style=&quot;background-color: rgb(186 , 200 , 211)&quot;&gt;schedule&lt;/span&gt;" style="text;html=1;resizable=0;points=[];align=center;verticalAlign=middle;labelBackgroundColor=#4D4D4D;fontColor=#FFFFFF;" vertex="1" connectable="0" parent="T5vKRFAIJWa_MrC4thSI-16">
          <mxGeometry x="-0.7895" y="1" relative="1" as="geometry">
            <mxPoint x="-0.5" y="1" as="offset"/>
          </mxGeometry>
        </mxCell>
        <mxCell id="T5vKRFAIJWa_MrC4thSI-17" style="edgeStyle=orthogonalEdgeStyle;rounded=0;orthogonalLoop=1;jettySize=auto;html=1;entryX=0;entryY=0.5;entryDx=0;entryDy=0;" edge="1" parent="1" source="T5vKRFAIJWa_MrC4thSI-5" target="T5vKRFAIJWa_MrC4thSI-12">
          <mxGeometry relative="1" as="geometry"/>
        </mxCell>
        <mxCell id="T5vKRFAIJWa_MrC4thSI-33" value="output" style="text;html=1;resizable=0;points=[];align=center;verticalAlign=middle;labelBackgroundColor=#FFFFFF;fontColor=#000000;" vertex="1" connectable="0" parent="T5vKRFAIJWa_MrC4thSI-17">
          <mxGeometry x="-0.359" y="9" relative="1" as="geometry">
            <mxPoint as="offset"/>
          </mxGeometry>
        </mxCell>
        <mxCell id="T5vKRFAIJWa_MrC4thSI-5" value="Scheduler" style="whiteSpace=wrap;html=1;aspect=fixed;fillColor=#e1d5e7;strokeColor=#9673a6;" vertex="1" parent="1">
          <mxGeometry x="395" y="407" width="93" height="93" as="geometry"/>
        </mxCell>
        <mxCell id="T5vKRFAIJWa_MrC4thSI-13" value="super params" style="edgeStyle=orthogonalEdgeStyle;rounded=0;orthogonalLoop=1;jettySize=auto;html=1;entryX=0.5;entryY=0;entryDx=0;entryDy=0;" edge="1" parent="1" source="T5vKRFAIJWa_MrC4thSI-6" target="T5vKRFAIJWa_MrC4thSI-5">
          <mxGeometry relative="1" as="geometry"/>
        </mxCell>
        <mxCell id="T5vKRFAIJWa_MrC4thSI-6" value="mode shell" style="rounded=0;whiteSpace=wrap;html=1;fillColor=#d5e8d4;strokeColor=#82b366;" vertex="1" parent="1">
          <mxGeometry x="386.5" y="280" width="110" height="60" as="geometry"/>
        </mxCell>
        <mxCell id="T5vKRFAIJWa_MrC4thSI-14" value="dataset&amp;nbsp;" style="edgeStyle=orthogonalEdgeStyle;rounded=0;orthogonalLoop=1;jettySize=auto;html=1;entryX=0;entryY=0.5;entryDx=0;entryDy=0;" edge="1" parent="1" source="T5vKRFAIJWa_MrC4thSI-7" target="T5vKRFAIJWa_MrC4thSI-5">
          <mxGeometry relative="1" as="geometry"/>
        </mxCell>
        <mxCell id="T5vKRFAIJWa_MrC4thSI-7" value="label &lt;br&gt;sequence&lt;br&gt;data" style="rounded=1;whiteSpace=wrap;html=1;fillColor=#f5f5f5;strokeColor=#666666;fontColor=#333333;" vertex="1" parent="1">
          <mxGeometry x="182" y="408" width="110" height="90" as="geometry"/>
        </mxCell>
        <mxCell id="T5vKRFAIJWa_MrC4thSI-8" value="GPUs" style="rounded=1;whiteSpace=wrap;html=1;fillColor=#e1d5e7;strokeColor=#9673a6;" vertex="1" parent="1">
          <mxGeometry x="310" y="553" width="120" height="60" as="geometry"/>
        </mxCell>
        <mxCell id="T5vKRFAIJWa_MrC4thSI-11" value="CPUs" style="rounded=1;whiteSpace=wrap;html=1;fillColor=#e1d5e7;strokeColor=#9673a6;" vertex="1" parent="1">
          <mxGeometry x="430" y="553" width="120" height="60" as="geometry"/>
        </mxCell>
        <mxCell id="T5vKRFAIJWa_MrC4thSI-27" style="edgeStyle=orthogonalEdgeStyle;rounded=0;orthogonalLoop=1;jettySize=auto;html=1;entryX=1;entryY=0.3333333333333333;entryDx=0;entryDy=0;entryPerimeter=0;exitX=1;exitY=0.5;exitDx=0;exitDy=0;" edge="1" parent="1" source="T5vKRFAIJWa_MrC4thSI-12" target="T5vKRFAIJWa_MrC4thSI-24">
          <mxGeometry relative="1" as="geometry">
            <Array as="points">
              <mxPoint x="700" y="434"/>
              <mxPoint x="700" y="230"/>
            </Array>
          </mxGeometry>
        </mxCell>
        <mxCell id="T5vKRFAIJWa_MrC4thSI-12" value="mode" style="rounded=0;whiteSpace=wrap;html=1;fillColor=#e1d5e7;strokeColor=#9673a6;" vertex="1" parent="1">
          <mxGeometry x="540" y="410" width="120" height="48" as="geometry"/>
        </mxCell>
        <mxCell id="T5vKRFAIJWa_MrC4thSI-22" style="edgeStyle=orthogonalEdgeStyle;rounded=0;orthogonalLoop=1;jettySize=auto;html=1;entryX=0.5;entryY=0;entryDx=0;entryDy=0;" edge="1" parent="1" source="T5vKRFAIJWa_MrC4thSI-21" target="T5vKRFAIJWa_MrC4thSI-20">
          <mxGeometry relative="1" as="geometry">
            <mxPoint x="260" y="360" as="targetPoint"/>
          </mxGeometry>
        </mxCell>
        <mxCell id="T5vKRFAIJWa_MrC4thSI-21" value="&lt;font color=&quot;#000000&quot;&gt;label master&lt;/font&gt;" style="shape=umlActor;verticalLabelPosition=bottom;labelBackgroundColor=#ffffff;verticalAlign=top;html=1;outlineConnect=0;fillColor=#1ba1e2;strokeColor=#006EAF;fontColor=#ffffff;" vertex="1" parent="1">
          <mxGeometry x="227" y="240" width="30" height="60" as="geometry"/>
        </mxCell>
        <mxCell id="T5vKRFAIJWa_MrC4thSI-25" style="edgeStyle=orthogonalEdgeStyle;rounded=0;orthogonalLoop=1;jettySize=auto;html=1;entryX=1;entryY=0.5;entryDx=0;entryDy=0;" edge="1" parent="1" source="T5vKRFAIJWa_MrC4thSI-24" target="T5vKRFAIJWa_MrC4thSI-6">
          <mxGeometry relative="1" as="geometry"/>
        </mxCell>
        <mxCell id="T5vKRFAIJWa_MrC4thSI-24" value="&lt;span style=&quot;color: rgb(51 , 51 , 51) ; font-family: &amp;#34;arial&amp;#34; ; font-size: 13px ; white-space: normal&quot;&gt;Algorithm engineer&lt;/span&gt;" style="shape=umlActor;verticalLabelPosition=bottom;labelBackgroundColor=#ffffff;verticalAlign=top;html=1;outlineConnect=0;fillColor=#d5e8d4;strokeColor=#82b366;" vertex="1" parent="1">
          <mxGeometry x="610" y="210" width="30" height="60" as="geometry"/>
        </mxCell>
        <mxCell id="T5vKRFAIJWa_MrC4thSI-32" style="edgeStyle=orthogonalEdgeStyle;rounded=0;orthogonalLoop=1;jettySize=auto;html=1;entryX=0;entryY=0.75;entryDx=0;entryDy=0;startArrow=none;startFill=0;fontColor=#FFFFFF;" edge="1" parent="1" source="T5vKRFAIJWa_MrC4thSI-30" target="T5vKRFAIJWa_MrC4thSI-5">
          <mxGeometry relative="1" as="geometry">
            <Array as="points">
              <mxPoint x="331" y="477"/>
            </Array>
          </mxGeometry>
        </mxCell>
        <mxCell id="T5vKRFAIJWa_MrC4thSI-30" value="agent" style="text;html=1;strokeColor=none;fillColor=none;align=center;verticalAlign=middle;whiteSpace=wrap;rounded=0;" vertex="1" parent="1">
          <mxGeometry x="311" y="551" width="40" height="20" as="geometry"/>
        </mxCell>
        <mxCell id="T5vKRFAIJWa_MrC4thSI-31" value="agent" style="text;html=1;strokeColor=none;fillColor=none;align=center;verticalAlign=middle;whiteSpace=wrap;rounded=0;" vertex="1" parent="1">
          <mxGeometry x="430" y="551" width="40" height="20" as="geometry"/>
        </mxCell>
        <mxCell id="T5vKRFAIJWa_MrC4thSI-35" value="user &lt;br&gt;sys" style="text;html=1;fillColor=none;align=center;verticalAlign=middle;whiteSpace=wrap;rounded=0;labelBackgroundColor=none;fontColor=#FFFFFF;fontStyle=3" vertex="1" parent="1">
          <mxGeometry x="327" y="400" width="24" height="20" as="geometry"/>
        </mxCell>
        <mxCell id="T5vKRFAIJWa_MrC4thSI-36" value="admin&lt;br&gt;&amp;nbsp;sys" style="text;html=1;fillColor=none;align=center;verticalAlign=middle;whiteSpace=wrap;rounded=0;labelBackgroundColor=none;labelBorderColor=none;fontStyle=3;fontColor=#FFFFFF;" vertex="1" parent="1">
          <mxGeometry x="520" y="490" width="40" height="20" as="geometry"/>
        </mxCell>
        <mxCell id="T5vKRFAIJWa_MrC4thSI-38" value="HPC任务调度器设想" style="text;html=1;strokeColor=none;fillColor=none;align=center;verticalAlign=middle;whiteSpace=wrap;rounded=0;labelBackgroundColor=none;fontColor=#000000;" vertex="1" parent="1">
          <mxGeometry x="354" y="630" width="139" height="20" as="geometry"/>
        </mxCell>
      </root>
    </mxGraphModel>
  </diagram>
</mxfile>
